<svg xmlns="http://www.w3.org/2000/svg" viewBox="0 0 512 512" role="img" aria-labelledby="title">
  <title id="title">サブスク管理アプリ</title>
  <defs>
    <linearGradient id="bg" x1="82" y1="58" x2="430" y2="454" gradientUnits="userSpaceOnUse">
      <stop stop-color="#7DD3FC"/>
      <stop offset="0.52" stop-color="#1677D2"/>
      <stop offset="1" stop-color="#FF92A8"/>
    </linearGradient>
    <linearGradient id="card" x1="138" y1="130" x2="378" y2="386" gradientUnits="userSpaceOnUse">
      <stop stop-color="#FFFFFF"/>
      <stop offset="1" stop-color="#EAF7FF"/>
    </linearGradient>
  </defs>
  <rect width="512" height="512" rx="116" fill="#07111F"/>
  <rect x="44" y="44" width="424" height="424" rx="96" fill="url(#bg)"/>
  <path d="M118 176c0-31 25-56 56-56h164c31 0 56 25 56 56v160c0 31-25 56-56 56H174c-31 0-56-25-56-56V176Z" fill="url(#card)" stroke="#FFFFFF" stroke-width="12"/>
  <path d="M178 202h156M178 258h156M178 314h92" stroke="#1677D2" stroke-width="28" stroke-linecap="round"/>
  <circle cx="360" cy="324" r="54" fill="#FF92A8" stroke="#FFFFFF" stroke-width="12"/>
  <path d="M345 324h30M360 309v30" stroke="#FFFFFF" stroke-width="16" stroke-linecap="round"/>
  <path d="M128 96l28 38 45 8-32 32 6 45-40-21-41 20 8-45-31-33 45-7 12-37Z" fill="#FFE7A6"/>
</svg>
